<svg width="143" height="79" viewBox="0 0 143 79" fill="none" xmlns="http://www.w3.org/2000/svg">
<path d="M37.491 37.575L36.3195 36.4966C42.8604 28.7793 51.6133 23.2566 61.3947 20.6752C71.1761 18.0939 81.5143 18.5784 91.0115 22.0633C100.509 25.5481 108.707 31.8652 114.497 40.1604C120.287 48.4555 123.391 58.3286 123.388 68.4448L37.491 37.575ZM37.491 37.575L37.7308 38.9368L56.8049 35.5776L56.8194 35.5751L56.8339 35.5723C57.9772 35.3477 59.1538 35.3535 60.2949 35.5892C61.436 35.8249 62.5187 36.2858 63.4795 36.945C64.4403 37.6041 65.26 38.4483 65.8906 39.4281C66.5212 40.4079 66.95 41.5037 67.152 42.6512C67.354 43.7987 67.3251 44.9751 67.067 46.1113C66.8089 47.2475 66.3268 48.3209 65.6488 49.2685C64.9709 50.2162 64.1107 51.0191 63.1187 51.6303C62.1267 52.2415 61.0227 52.6487 59.8714 52.8281L59.8565 52.8304L59.8417 52.833L21.2282 59.6472L21.1303 59.6645L21.0355 59.6945C18.3643 60.5415 15.2221 60.1569 12.8734 58.5134L12.8713 58.5119C10.9642 57.1822 9.67279 55.145 9.26938 52.8593C9.26937 52.8593 9.26935 52.8592 9.26934 52.8591L2.14052 12.426L2.138 12.4117L2.13519 12.3974C1.91065 11.254 1.9164 10.0774 2.1521 8.93629C2.3878 7.79519 2.84873 6.71256 3.5079 5.75176C4.16708 4.79095 5.01127 3.97127 5.99106 3.34066C6.97086 2.71006 8.06659 2.28121 9.21413 2.07921C10.3617 1.8772 11.538 1.9061 12.6742 2.16421C13.8105 2.42232 14.8838 2.90446 15.8315 3.58241C16.7791 4.26036 17.582 5.12051 18.1932 6.11253C18.8044 7.10454 19.2116 8.2085 19.391 9.35979L19.3934 9.37477L19.396 9.3897L21.77 22.8333L22.3042 25.8584L24.3612 23.5768C30.6265 16.6275 38.2831 11.0735 46.8341 7.27523C55.3851 3.47697 64.6392 1.51942 73.9958 1.52964H73.9975C110.955 1.52964 140.913 31.4875 140.913 68.4448C140.913 70.7687 139.989 72.9974 138.346 74.6406C136.703 76.2839 134.474 77.207 132.15 77.207C129.826 77.207 127.598 76.2839 125.954 74.6406C124.311 72.9975 123.388 70.769 123.388 68.4452L37.491 37.575Z" fill="white" stroke="#B28100" stroke-width="3"/>
</svg>
